<?xml version="1.0" encoding="UTF-8"?>
<svg viewBox="0 0 97.121437 148.61646" xmlns="http://www.w3.org/2000/svg">
 <g transform="translate(-434.69 -347.75)">
  <path d="m483.21 349.07c-26.086 0-47.197 21.194-47.197 47.28 0 29.694 21.474 40.357 29.27 51.847s16.549 24.129 17.926 46.845c1.3793-22.652 9.0355-33.682 17.51-46.845s29.77-25.761 29.77-51.847-21.194-47.28-47.28-47.28z" fill="#37c837" stroke="#000" stroke-width="2.645"/>
  <path transform="matrix(2.645 0 0 2.645 -719.05 -569.22)" d="m459.64 364.77c0 2.8107-2.2786 5.0893-5.0893 5.0893s-5.0893-2.2786-5.0893-5.0893 2.2786-5.0893 5.0893-5.0893 5.0893 2.2786 5.0893 5.0893z"/>
 </g>
</svg>
